<mxfile host="app.diagrams.net" modified="2023-04-21T10:08:14.430Z" agent="Mozilla/5.0 (X11; Ubuntu; Linux x86_64; rv:109.0) Gecko/20100101 Firefox/110.0" etag="AGUY5c3sSx9ZMiUecnn7" version="21.2.1" type="github">
  <diagram name="Page-1" id="eyfvea6lGuBPal7LJH-A">
    <mxGraphModel dx="1313" dy="750" grid="1" gridSize="10" guides="1" tooltips="1" connect="1" arrows="1" fold="1" page="1" pageScale="1" pageWidth="850" pageHeight="1100" math="0" shadow="0">
      <root>
        <mxCell id="0" />
        <mxCell id="1" parent="0" />
        <mxCell id="uvWgcEKKaf4A_azUMl_0-2" value="PC1" style="rounded=1;whiteSpace=wrap;html=1;" parent="1" vertex="1">
          <mxGeometry x="50" y="300" width="120" height="60" as="geometry" />
        </mxCell>
        <mxCell id="uvWgcEKKaf4A_azUMl_0-29" style="edgeStyle=orthogonalEdgeStyle;rounded=0;orthogonalLoop=1;jettySize=auto;html=1;entryX=0;entryY=0.5;entryDx=0;entryDy=0;" parent="1" source="uvWgcEKKaf4A_azUMl_0-3" target="uvWgcEKKaf4A_azUMl_0-6" edge="1">
          <mxGeometry relative="1" as="geometry" />
        </mxCell>
        <mxCell id="uvWgcEKKaf4A_azUMl_0-30" style="edgeStyle=orthogonalEdgeStyle;rounded=0;orthogonalLoop=1;jettySize=auto;html=1;entryX=0;entryY=0.5;entryDx=0;entryDy=0;" parent="1" source="uvWgcEKKaf4A_azUMl_0-3" target="uvWgcEKKaf4A_azUMl_0-11" edge="1">
          <mxGeometry relative="1" as="geometry" />
        </mxCell>
        <mxCell id="uvWgcEKKaf4A_azUMl_0-31" style="edgeStyle=orthogonalEdgeStyle;rounded=0;orthogonalLoop=1;jettySize=auto;html=1;entryX=0.012;entryY=0.34;entryDx=0;entryDy=0;entryPerimeter=0;" parent="1" source="uvWgcEKKaf4A_azUMl_0-3" target="uvWgcEKKaf4A_azUMl_0-8" edge="1">
          <mxGeometry relative="1" as="geometry">
            <Array as="points">
              <mxPoint x="280" y="340" />
              <mxPoint x="280" y="470" />
              <mxPoint x="380" y="470" />
            </Array>
          </mxGeometry>
        </mxCell>
        <mxCell id="uvWgcEKKaf4A_azUMl_0-34" style="edgeStyle=orthogonalEdgeStyle;rounded=0;orthogonalLoop=1;jettySize=auto;html=1;entryX=0;entryY=0.5;entryDx=0;entryDy=0;" parent="1" target="uvWgcEKKaf4A_azUMl_0-9" edge="1">
          <mxGeometry relative="1" as="geometry">
            <mxPoint x="107" y="370" as="sourcePoint" />
            <mxPoint x="137" y="495" as="targetPoint" />
            <Array as="points">
              <mxPoint x="107" y="495" />
            </Array>
          </mxGeometry>
        </mxCell>
        <mxCell id="uvWgcEKKaf4A_azUMl_0-3" value="PC1, PC2" style="rounded=1;whiteSpace=wrap;html=1;" parent="1" vertex="1">
          <mxGeometry x="60" y="310" width="120" height="60" as="geometry" />
        </mxCell>
        <mxCell id="uvWgcEKKaf4A_azUMl_0-13" value="Motion segmentation" style="edgeStyle=orthogonalEdgeStyle;rounded=0;orthogonalLoop=1;jettySize=auto;html=1;entryX=0.505;entryY=-0.047;entryDx=0;entryDy=0;entryPerimeter=0;fillColor=#d5e8d4;strokeColor=#82b366;" parent="1" source="uvWgcEKKaf4A_azUMl_0-6" target="uvWgcEKKaf4A_azUMl_0-8" edge="1">
          <mxGeometry relative="1" as="geometry" />
        </mxCell>
        <mxCell id="uvWgcEKKaf4A_azUMl_0-15" value="Divide KNN" style="edgeStyle=orthogonalEdgeStyle;rounded=0;orthogonalLoop=1;jettySize=auto;html=1;entryX=0.5;entryY=1;entryDx=0;entryDy=0;fillColor=#d5e8d4;strokeColor=#82b366;" parent="1" source="uvWgcEKKaf4A_azUMl_0-6" target="uvWgcEKKaf4A_azUMl_0-11" edge="1">
          <mxGeometry relative="1" as="geometry" />
        </mxCell>
        <mxCell id="r_ynVMXiCkLf7ZFXaeRl-3" value="Distance Transform" style="edgeStyle=orthogonalEdgeStyle;rounded=0;orthogonalLoop=1;jettySize=auto;html=1;fillColor=#d5e8d4;strokeColor=#82b366;" edge="1" parent="1" source="uvWgcEKKaf4A_azUMl_0-6" target="r_ynVMXiCkLf7ZFXaeRl-1">
          <mxGeometry relative="1" as="geometry" />
        </mxCell>
        <mxCell id="uvWgcEKKaf4A_azUMl_0-6" value="Visibility" style="rounded=1;whiteSpace=wrap;html=1;fillColor=#d5e8d4;strokeColor=#82b366;" parent="1" vertex="1">
          <mxGeometry x="380" y="310" width="120" height="60" as="geometry" />
        </mxCell>
        <mxCell id="uvWgcEKKaf4A_azUMl_0-36" style="edgeStyle=orthogonalEdgeStyle;rounded=0;orthogonalLoop=1;jettySize=auto;html=1;fillColor=#f8cecc;strokeColor=#b85450;entryX=0.75;entryY=1;entryDx=0;entryDy=0;" parent="1" source="uvWgcEKKaf4A_azUMl_0-8" target="uvWgcEKKaf4A_azUMl_0-9" edge="1">
          <mxGeometry relative="1" as="geometry">
            <Array as="points">
              <mxPoint x="440" y="590" />
              <mxPoint x="227" y="590" />
            </Array>
            <mxPoint x="280" y="530" as="targetPoint" />
          </mxGeometry>
        </mxCell>
        <mxCell id="uvWgcEKKaf4A_azUMl_0-8" value="&lt;div&gt;Ego-Motion&lt;/div&gt;&lt;div&gt;(Kabsch)&lt;br&gt;&lt;/div&gt;" style="rounded=1;whiteSpace=wrap;html=1;" parent="1" vertex="1">
          <mxGeometry x="380" y="450" width="120" height="60" as="geometry" />
        </mxCell>
        <mxCell id="r_ynVMXiCkLf7ZFXaeRl-5" value="Flow" style="edgeStyle=orthogonalEdgeStyle;rounded=0;orthogonalLoop=1;jettySize=auto;html=1;entryX=0.75;entryY=1;entryDx=0;entryDy=0;" edge="1" parent="1" source="uvWgcEKKaf4A_azUMl_0-9" target="uvWgcEKKaf4A_azUMl_0-3">
          <mxGeometry relative="1" as="geometry" />
        </mxCell>
        <mxCell id="uvWgcEKKaf4A_azUMl_0-9" value="Motion Flow" style="rounded=1;whiteSpace=wrap;html=1;fillColor=#fff2cc;strokeColor=#d6b656;" parent="1" vertex="1">
          <mxGeometry x="137" y="465" width="120" height="60" as="geometry" />
        </mxCell>
        <mxCell id="uvWgcEKKaf4A_azUMl_0-35" style="edgeStyle=orthogonalEdgeStyle;rounded=0;orthogonalLoop=1;jettySize=auto;html=1;fillColor=#f8cecc;strokeColor=#b85450;entryX=0.25;entryY=1;entryDx=0;entryDy=0;" parent="1" source="uvWgcEKKaf4A_azUMl_0-11" target="uvWgcEKKaf4A_azUMl_0-9" edge="1">
          <mxGeometry relative="1" as="geometry">
            <Array as="points">
              <mxPoint x="790" y="220" />
              <mxPoint x="790" y="650" />
              <mxPoint x="167" y="650" />
            </Array>
            <mxPoint x="197" y="525" as="targetPoint" />
          </mxGeometry>
        </mxCell>
        <mxCell id="uvWgcEKKaf4A_azUMl_0-11" value="&lt;div&gt;Smoothness&lt;/div&gt;&lt;div&gt;loss&lt;br&gt;&lt;/div&gt;" style="rounded=1;whiteSpace=wrap;html=1;" parent="1" vertex="1">
          <mxGeometry x="380" y="190" width="120" height="60" as="geometry" />
        </mxCell>
        <mxCell id="r_ynVMXiCkLf7ZFXaeRl-2" style="edgeStyle=orthogonalEdgeStyle;rounded=0;orthogonalLoop=1;jettySize=auto;html=1;fillColor=#f8cecc;strokeColor=#b85450;entryX=0.527;entryY=0.99;entryDx=0;entryDy=0;entryPerimeter=0;" edge="1" parent="1" source="r_ynVMXiCkLf7ZFXaeRl-1" target="uvWgcEKKaf4A_azUMl_0-9">
          <mxGeometry relative="1" as="geometry">
            <mxPoint x="310" y="550" as="targetPoint" />
            <Array as="points">
              <mxPoint x="710" y="620" />
              <mxPoint x="200" y="620" />
              <mxPoint x="200" y="550" />
            </Array>
          </mxGeometry>
        </mxCell>
        <mxCell id="r_ynVMXiCkLf7ZFXaeRl-1" value="NN loss" style="rounded=1;whiteSpace=wrap;html=1;" vertex="1" parent="1">
          <mxGeometry x="650" y="310" width="120" height="60" as="geometry" />
        </mxCell>
      </root>
    </mxGraphModel>
  </diagram>
</mxfile>
